<?xml version="1.0"?><svg fill="#000000" xmlns="http://www.w3.org/2000/svg"  viewBox="0 0 64 64" width="64px" height="64px">    <path d="M 3 10 C 1.346 10 0 11.346 0 13 L 0 51 C 0 52.654 1.346 54 3 54 L 61 54 C 62.654 54 64 52.654 64 51 L 64 13 C 64 11.346 62.654 10 61 10 L 3 10 z M 3 12 L 61 12 C 61.55 12 62 12.45 62 13 L 62 51 C 62 51.55 61.55 52 61 52 L 3 52 C 2.448 52 2 51.552 2 51 L 2 13 C 2 12.45 2.45 12 3 12 z M 22 17 C 13.729 17 7 23.729 7 32 C 7 40.271 13.729 47 22 47 C 25.839 47 29.334234 45.538203 31.990234 43.158203 C 34.707234 45.589203 38.264 47 42 47 C 50.271 47 57 40.271 57 32 C 57 23.729 50.271 17 42 17 C 38.26 17 34.749141 18.368656 31.994141 20.847656 C 29.338141 18.464656 25.841 17 22 17 z M 22 19 C 29.168 19 35 24.832 35 32 C 35 35.151 33.872 38.041922 32 40.294922 C 31.535 39.735922 31.109281 39.138047 30.738281 38.498047 C 30.462281 38.020047 29.850094 37.857766 29.371094 38.134766 C 28.893094 38.411766 28.729813 39.023953 29.007812 39.501953 C 29.469812 40.299953 30.00475 41.040516 30.59375 41.728516 C 28.29975 43.756516 25.295 45 22 45 C 14.832 45 9 39.168 9 32 C 9 24.832 14.832 19 22 19 z M 42 19 C 49.168 19 55 24.832 55 32 C 55 39.168 49.168 45 42 45 C 38.793 45 35.738578 43.801422 33.392578 41.732422 C 35.636578 39.109422 37 35.714 37 32 C 37 28.288 35.637484 24.893484 33.396484 22.271484 C 35.773484 20.162484 38.789 19 42 19 z M 41.605469 22.009766 C 40.608414 22.047852 39.616719 22.233484 38.667969 22.568359 C 38.146969 22.752359 37.872641 23.324703 38.056641 23.845703 C 38.241641 24.366703 38.810031 24.640078 39.332031 24.455078 C 41.353031 23.741078 43.632687 23.875078 45.554688 24.830078 C 45.698687 24.901078 45.849047 24.935547 45.998047 24.935547 C 46.366047 24.935547 46.720531 24.731859 46.894531 24.380859 C 47.141531 23.886859 46.939313 23.285063 46.445312 23.039062 C 44.941563 22.292188 43.267227 21.946289 41.605469 22.009766 z M 28.259766 24.232422 C 27.870656 24.210531 27.486937 24.417062 27.304688 24.789062 C 27.060688 25.285063 27.265719 25.885906 27.761719 26.128906 L 29.558594 27.009766 C 30.054594 27.252766 30.653484 27.048734 30.896484 26.552734 C 31.139484 26.056734 30.935453 25.457844 30.439453 25.214844 L 28.642578 24.332031 C 28.518578 24.271281 28.389469 24.239719 28.259766 24.232422 z M 48.761719 25.001953 C 48.506219 24.988078 48.246016 25.071859 48.041016 25.255859 C 47.630016 25.623859 47.594891 26.255969 47.962891 26.667969 C 48.441891 27.202969 48.849922 27.801313 49.169922 28.445312 C 49.344922 28.797313 49.696453 29 50.064453 29 C 50.213453 29 50.367766 28.966484 50.509766 28.896484 C 51.004766 28.650484 51.204984 28.048687 50.958984 27.554688 C 50.558984 26.748687 50.052125 26.000031 49.453125 25.332031 C 49.268125 25.125531 49.017219 25.015828 48.761719 25.001953 z M 26.867188 29.136719 C 26.319187 29.069719 25.820906 29.459813 25.753906 30.007812 C 25.686906 30.555813 26.075047 31.054094 26.623047 31.121094 L 28.609375 31.365234 C 29.157375 31.432234 29.655656 31.042141 29.722656 30.494141 C 29.789656 29.946141 29.399562 29.447859 28.851562 29.380859 L 26.867188 29.136719 z M 29.117188 33.839844 C 28.989547 33.815703 28.855703 33.816453 28.720703 33.845703 L 26.765625 34.267578 C 26.225625 34.384578 25.883 34.915078 26 35.455078 C 26.117 35.995078 26.6485 36.339656 27.1875 36.222656 L 29.142578 35.800781 C 29.682578 35.683781 30.026156 35.151328 29.910156 34.611328 C 29.822406 34.206328 29.500109 33.912266 29.117188 33.839844 z"/></svg>